# xmcd
#
# Track frame offsets:
#	150
#	10210
#	22202
#	35282
#	46187
#	59427
#	71580
#	85960
#	97142
#	116960
#	131355
#	142390
#
# Disc length: 2106 seconds
# Revision: 0
# Processed by: cddbd v1.5.2PL0 Copyright (c) Steve Scherf et al.
# Submitted via: dBpowerAMP V12.0
#
DISCID=b108380c
DTITLE=John Lee Hooker - On Campus
DYEAR=1963
DGENRE=Blues
TTITLE0=I'm Leaving
TTITLE1=Love Is a Burning Thing
TTITLE2=Birmingham Blues
TTITLE3=I Want to Shout
TTITLE4=Don't Look Back
TTITLE5=I Want to Hug You
TTITLE6=Poor Me
TTITLE7=I Want to Ramble
TTITLE8=Half a Stranger
TTITLE9=My Grinding Mill
TTITLE10=Bottle up and Go
TTITLE11=One Way Ticket
EXTD=
EXTT0=
EXTT1=
EXTT2=
EXTT3=
EXTT4=
EXTT5=
EXTT6=
EXTT7=
EXTT8=
EXTT9=
EXTT10=
EXTT11=
PLAYORDER=
